<svg width="497" height="450" viewBox="0 0 497 450" fill="none" xmlns="http://www.w3.org/2000/svg">
<rect x="313.088" y="54.9444" width="8.99679" height="8.99679" rx="2.2925" transform="rotate(-45 313.088 54.9444)" fill="#685D79"/>
<rect x="484.277" y="379.147" width="8.99679" height="8.99679" rx="2.2925" transform="rotate(-45 484.277 379.147)" fill="#685D79"/>
<rect x="325.684" y="180.899" width="8.99679" height="8.99679" rx="2.2925" transform="rotate(-45 325.684 180.899)" fill="#AB6C82"/>
<rect x="44.9839" y="6.36169" width="8.99679" height="8.99679" rx="2.2925" transform="rotate(-45 44.9839 6.36169)" fill="#AB6C82"/>
<rect x="98.0649" y="294.259" width="8.99679" height="8.99679" rx="2.2925" transform="rotate(-45 98.0649 294.259)" fill="#AB6C82"/>
<rect x="102.601" y="33.2881" width="65.2066" height="65.2066" rx="12.2262" transform="rotate(25 102.601 33.2881)" fill="#D8737F"/>
<path d="M119.445 91.9846C119.292 91.9177 119.159 91.8095 119.063 91.6717L114.291 85.3903L107.322 85.7922C106.184 85.861 105.204 84.9932 105.135 83.8537C105.135 83.8397 105.134 83.8258 105.133 83.8106C105.117 83.34 105.25 82.8787 105.513 82.4887L109.578 76.5991L107.188 69.9025C106.804 68.7942 107.37 67.5802 108.466 67.1607C108.896 66.9921 109.369 66.9744 109.809 67.1106L116.457 69.0628L121.902 64.5972C122.768 63.8618 124.066 63.9667 124.803 64.8333C125.123 65.2087 125.295 65.6865 125.292 66.1783L125.374 73.2448L131.159 77.104C131.628 77.4139 131.95 77.9029 132.052 78.4556C132.234 79.5057 131.651 80.5378 130.658 80.9247L124.038 83.3536L123.058 87.0925C122.905 87.6504 122.334 87.9851 121.772 87.8418C121.223 87.6964 120.895 87.1328 121.041 86.5818L122.009 82.8378C122.196 82.1562 122.698 81.6047 123.359 81.3569L130.005 78.9011L124.226 75.0296C123.642 74.6329 123.301 73.9645 123.323 73.2595L123.231 66.2182L117.701 70.7488C117.174 71.2196 116.444 71.3872 115.764 71.1949L109.116 69.2427L111.477 75.8896C111.714 76.5474 111.618 77.2775 111.221 77.8524L107.156 83.742L114.117 83.3518C114.813 83.2987 115.487 83.6128 115.894 84.1802L120.657 90.4576C120.945 90.8479 120.933 91.3836 120.629 91.762C120.334 92.1445 119.815 92.2729 119.375 92.0765L119.445 91.9846Z" fill="white"/>
<rect x="365.27" y="101.664" width="65.2066" height="65.2066" rx="12.2262" fill="#AB6C82"/>
<path fill-rule="evenodd" clip-rule="evenodd" d="M411.458 132.667C411.458 133.233 410.997 133.694 410.431 133.694H410.419V133.669C409.845 133.669 409.381 133.206 409.38 132.633V132.63V129.177C409.38 125.029 407.111 122.761 402.976 122.761H392.787C388.649 122.761 386.367 125.043 386.367 129.177V139.365C386.367 143.487 388.649 145.769 392.783 145.769H402.972C407.105 145.769 409.375 143.487 409.375 139.365C409.375 138.792 409.84 138.326 410.415 138.326C410.989 138.326 411.454 138.792 411.454 139.365C411.458 144.602 408.209 147.852 402.976 147.852H392.783C387.538 147.852 384.289 144.602 384.289 139.369V129.181C384.289 123.932 387.538 120.682 392.783 120.682H402.972C408.184 120.682 411.458 123.932 411.458 129.177V132.667ZM396.262 136.051L401.989 130.323C402.387 129.925 403.032 129.925 403.43 130.323C403.828 130.721 403.828 131.366 403.43 131.764L396.982 138.213C396.79 138.403 396.531 138.51 396.262 138.51C395.99 138.51 395.732 138.403 395.54 138.213L392.317 134.988C391.919 134.59 391.919 133.944 392.317 133.546C392.715 133.148 393.36 133.148 393.758 133.546L396.262 136.051Z" fill="white"/>
<rect y="403.259" width="65.2066" height="65.2066" rx="12.2262" transform="rotate(-45 0 403.259)" fill="#FCBB6D"/>
<path fill-rule="evenodd" clip-rule="evenodd" d="M44.9209 390.193L43.0352 392.079C41.4599 390.861 39.1814 390.974 37.7376 392.418L35.2574 394.898C33.8136 396.342 33.6993 398.619 34.9174 400.195L33.0423 402.072C31.0203 404.094 31.0164 407.379 33.0327 409.395L36.363 412.725C36.6051 412.967 36.9519 413.072 37.2881 413.003C40.5713 412.331 43.7816 410.859 46.5731 408.749C46.9909 408.439 47.0976 407.877 46.844 407.432C46.2791 406.438 46.4424 405.228 47.2503 404.42C48.0495 403.621 49.2781 403.462 50.2358 404.032C50.6402 404.273 51.1522 404.203 51.4769 403.878C51.5105 403.845 51.5412 403.81 51.57 403.772C53.6958 400.964 55.1732 397.738 55.8437 394.447C55.9109 394.111 55.8072 393.765 55.5651 393.523L52.2348 390.193C50.2185 388.177 46.9371 388.177 44.9209 390.193ZM53.7304 394.57C53.133 397.129 52.0004 399.635 50.4222 401.888C48.8324 401.351 47.04 401.749 45.8095 402.979C44.5886 404.2 44.1842 405.996 44.7 407.593C42.4609 409.162 39.9643 410.292 37.4101 410.891L34.4736 407.954C33.2518 406.732 33.2556 404.74 34.4842 403.511L37.0547 400.937C37.2468 400.745 37.3534 400.487 37.3534 400.216C37.3515 399.945 37.2449 399.686 37.0537 399.495L36.6974 399.141C35.9251 398.368 35.926 397.111 36.6983 396.339L39.1786 393.859C39.825 393.212 40.8125 393.106 41.5704 393.543L38.9768 396.137C38.5792 396.535 38.5792 397.18 38.9768 397.578C39.3745 397.976 40.02 397.976 40.4177 397.578L46.3618 391.634C47.5837 390.412 49.5721 390.412 50.7939 391.634L53.7304 394.57ZM50.0736 405.793L51.3166 407.036C51.7143 407.434 51.7143 408.08 51.3166 408.477C50.9189 408.875 50.2734 408.875 49.8758 408.477L48.6328 407.234C48.2351 406.837 48.2351 406.191 48.6328 405.793C49.0304 405.396 49.676 405.396 50.0736 405.793ZM57.5778 397.025C57.2003 397.402 57.1936 397.997 57.5336 398.395C57.5336 398.395 59.0657 400.223 59.5652 400.784C60.1166 401.406 60.5172 402.283 60.5844 403.017C60.6814 404.053 60.3827 404.796 59.5182 405.664C58.9505 406.234 55.8843 409.302 53.5674 411.619C53.1687 412.018 53.1687 412.663 53.5664 413.061C53.9641 413.459 54.6096 413.459 55.0073 413.061C57.2435 410.825 60.4259 407.64 60.9619 407.102C62.2405 405.818 62.7659 404.459 62.6141 402.828C62.5056 401.657 61.936 400.388 61.0897 399.432C60.7409 399.04 59.854 398.004 59.36 397.427L59.3597 397.427C59.1573 397.19 59.021 397.031 59.0148 397.025C58.6181 396.628 57.9745 396.628 57.5778 397.025ZM48.5041 416.678C48.6933 416.491 49.0833 416.101 49.5953 415.589C49.993 415.191 50.6414 415.188 51.0391 415.586C51.4368 415.984 51.4329 416.633 51.0343 417.032C50.5156 417.55 50.1371 417.929 49.943 418.121C48.6578 419.4 47.2986 419.926 45.6665 419.773C44.4975 419.665 43.2276 419.096 42.2728 418.249C41.8854 417.906 40.8736 417.039 40.2922 416.542C40.0416 416.327 39.871 416.181 39.8646 416.175C39.4679 415.778 39.4679 415.134 39.8646 414.738C40.2421 414.36 40.8358 414.354 41.2354 414.694C41.2354 414.694 43.0633 416.227 43.6243 416.724C44.2468 417.276 45.1228 417.677 45.8558 417.743C46.8951 417.841 47.6367 417.542 48.5041 416.678Z" fill="white"/>
</svg>
